<svg width="83" height="31" viewBox="0 0 83 31" fill="none" xmlns="http://www.w3.org/2000/svg">
<g filter="url(#filter0_d_1_6)">
<path d="M53.3908 1.19026H50.7675V22.4635H53.3908V1.19026Z" fill="#214E41"/>
<path d="M60.078 1.19026H57.4547V22.4635H60.078V1.19026Z" fill="#214E41"/>
<path d="M77.7314 8.11542L76.4197 10.9721C75.2156 8.91614 73.1084 7.74752 70.6356 7.74752C66.2061 7.74752 63.1958 11.1235 63.1958 15.2786C63.1958 19.4337 66.2061 22.8097 70.6356 22.8097C72.9794 22.8097 75.0006 21.7493 76.2262 19.8882V22.4635H79V8.11542H77.7314ZM71.0442 21.2732C67.9263 21.2732 66.2061 18.7196 66.2061 15.2786C66.2061 11.7511 67.9263 9.28404 71.0442 9.28404C73.904 9.28404 76.0327 11.7944 76.0327 15.2786C76.0327 18.7629 73.904 21.2732 71.0442 21.2732Z" fill="#214E41"/>
<path d="M27.115 9.2624C26.2764 10.0631 25.6313 11.0586 25.2658 12.1623L23.9111 8.09378H22.6425V22.4418H25.4163V16.9883C25.4163 15.0189 25.6313 13.3742 26.4269 12.2056C27.115 11.2101 28.2976 10.6041 29.7813 10.6041C30.2543 10.6041 30.7274 10.6474 31.2004 10.734V7.98557C30.9209 7.94229 30.6413 7.92065 30.3618 7.92065C29.1577 7.94229 27.9966 8.4184 27.115 9.2624Z" fill="#214E41"/>
<path d="M39.7368 7.74752C35.2858 7.74752 32.125 10.9937 32.125 15.2786C32.125 19.5636 35.2213 22.8097 39.7153 22.8097C41.3925 22.8314 43.0482 22.3336 44.4458 21.3814C45.6069 20.4941 46.4455 19.239 46.8326 17.8106H43.9728C43.5427 19.6285 42.4246 21.2949 39.9088 21.2949C36.361 21.2949 35.2213 18.5032 35.1568 15.5167V15.4734H47.1551C47.1551 15.3219 47.1551 15.2137 47.1551 15.1271C47.1766 10.8422 44.1448 7.74752 39.7368 7.74752ZM39.7583 9.2624C42.8976 9.2624 43.8867 11.8377 43.9728 13.9152H35.2428C35.5009 11.3832 36.791 9.2624 39.7583 9.2624Z" fill="#214E41"/>
<path d="M13.461 12.0108C16.2778 11.4265 18.4495 9.91163 18.4495 7.27141C18.4495 4.02525 16.0198 2.46709 12.2784 2.46709H4V22.4851H13.16C16.5358 22.4851 19.2021 20.7538 19.2021 17.0965C19.2021 14.0667 16.6649 12.2272 13.461 12.0108ZM11.3323 3.91704C14.0201 3.91704 15.4177 5.28043 15.4177 7.4229C15.4177 9.56537 13.8911 11.2317 11.0958 11.2317H7.09633V3.91704H11.3323ZM11.6978 20.9919H7.09633V12.8981H11.2248C14.1706 12.8981 15.9983 14.3481 15.9983 16.9666C15.9983 19.2606 14.4716 20.9919 11.6978 20.9919Z" fill="#214E41"/>
</g>
<defs>
<filter id="filter0_d_1_6" x="0" y="0" width="83" height="32" filterUnits="userSpaceOnUse" color-interpolation-filters="sRGB">
<feFlood flood-opacity="0" result="BackgroundImageFix"/>
<feColorMatrix in="SourceAlpha" type="matrix" values="0 0 0 0 0 0 0 0 0 0 0 0 0 0 0 0 0 0 127 0" result="hardAlpha"/>
<feOffset dy="4"/>
<feGaussianBlur stdDeviation="2"/>
<feComposite in2="hardAlpha" operator="out"/>
<feColorMatrix type="matrix" values="0 0 0 0 0 0 0 0 0 0 0 0 0 0 0 0 0 0 0.25 0"/>
<feBlend mode="normal" in2="BackgroundImageFix" result="effect1_dropShadow_1_6"/>
<feBlend mode="normal" in="SourceGraphic" in2="effect1_dropShadow_1_6" result="shape"/>
</filter>
</defs>
</svg>
