<svg xmlns="http://www.w3.org/2000/svg" aria-hidden="true" overflow="hidden" style="position:absolute;width:0;height:0">
  <defs>
    <symbol id="icon-benefits" viewBox="0 0 41 32">
      <path d="M0 0h41.244v32H0V0z"/>
    </symbol>
    <symbol id="icon-brella" viewBox="0 0 86 32">
      <path fill="var(--color1, #214e41)" d="M55.113 1.229h-2.708v21.959h2.708V1.229zM62.016 1.229h-2.708v21.959h2.708V1.229zM80.239 8.377l-1.354 2.949c-1.243-2.122-3.418-3.329-5.971-3.329-4.572 0-7.68 3.485-7.68 7.774s3.107 7.774 7.68 7.774c2.419 0 4.506-1.095 5.771-3.016v2.658h2.863V8.376h-1.31zm-6.903 13.582c-3.218 0-4.994-2.636-4.994-6.188 0-3.641 1.776-6.188 4.994-6.188 2.952 0 5.149 2.591 5.149 6.188s-2.197 6.188-5.149 6.188zM27.99 9.561a7.35 7.35 0 0 0-1.909 2.993l-1.398-4.2h-1.31v14.811h2.863v-5.629c0-2.033.222-3.731 1.043-4.937.71-1.028 1.931-1.653 3.463-1.653.488 0 .977.045 1.465.134V8.243a5.614 5.614 0 0 0-.866-.067 4.98 4.98 0 0 0-3.352 1.385zM41.019 7.997c-4.595 0-7.857 3.351-7.857 7.774s3.196 7.774 7.835 7.774a8.492 8.492 0 0 0 4.883-1.474 6.908 6.908 0 0 0 2.464-3.686h-2.952c-.444 1.877-1.598 3.597-4.195 3.597-3.662 0-4.839-2.882-4.905-5.965v-.045h12.385v-.357c.022-4.423-3.107-7.618-7.658-7.618zm.022 1.564c3.241 0 4.262 2.658 4.35 4.803h-9.012c.266-2.614 1.598-4.803 4.661-4.803zM13.895 12.398c2.908-.603 5.149-2.167 5.149-4.892 0-3.351-2.508-4.959-6.37-4.959H4.129v20.664h9.455c3.485 0 6.237-1.787 6.237-5.562 0-3.128-2.619-5.026-5.926-5.25zm-2.197-8.355c2.774 0 4.217 1.407 4.217 3.619s-1.576 3.932-4.461 3.932H7.326V4.043h4.373zm.377 17.626h-4.75v-8.355h4.262c3.041 0 4.927 1.497 4.927 4.2 0 2.368-1.576 4.155-4.439 4.155z"/>
    </symbol>
    <symbol id="icon-brella-footer" viewBox="0 0 112 32">
      <path fill="var(--color2, #fff)" d="M69.333 0h4.148v31.407h-4.148V0zM46.222 21.333c0 2.765 1.457 8.924 7.111 8.296 5.333-.593 5.926-5.333 5.926-5.333h4.148c0 1.778-2.632 7.704-10.074 7.704-8.296 0-11.852-6.518-11.852-10.667S42.666 9.481 53.333 9.481C61.866 9.481 64 16.592 64 21.333H46.222zm13.037-2.37H46.222c.395-2.37 1.185-7.111 7.111-7.111 5.092 0 5.926 5.926 5.926 7.111zM82.963 0h-4.148v31.407h4.148V0zM29.63 10.074L31.408 16c.395-1.975 4.148-7.111 8.889-5.926v4.148c-2.766-.395-8.296.83-8.296 6.518v10.667h-4.148V10.074h1.778zm77.629 4.148l1.778-4.148h2.37v21.459l-4.741-.125v-3.556c-.79 1.383-3.319 4.148-7.111 4.148-4.741 0-11.852-2.37-11.852-11.259S94.814 8.889 99.555 9.482c3.763.47 6.716 3.16 7.704 4.741zm-.592 6.519c0-5.689-4.148-8.889-7.111-8.889-3.556 0-7.111 2.252-7.111 8.889s3.556 8.889 7.111 8.889c2.37 0 7.111-3.2 7.111-8.889zM0 31.407V1.777h14.222c3.556 0 7.111 1.778 7.111 7.111s-4.741 6.519-7.111 7.111c2.765 0 8.296 1.541 8.296 7.704s-5.136 7.704-7.704 7.704H-.001zM4.741 4.148v10.667h7.704c1.778 0 4.148-2.963 4.148-5.926 0-3.022-2.963-4.741-4.741-4.741H4.741zm0 13.037v11.852h8.296c1.975-.395 4.741-2.015 4.741-5.333 0-4.148-2.963-6.518-5.926-6.518H4.741z"/>
    </symbol>
    <symbol id="icon-broker1" viewBox="0 0 78 32">
      <path d="M0 0h77.867v32H0V0z"/>
    </symbol>
    <symbol id="icon-broker2" viewBox="0 0 78 32">
      <path d="M0 0h77.867v32H0V0z"/>
    </symbol>
    <symbol id="icon-broker3" viewBox="0 0 78 32">
      <path d="M0 0h77.867v32H0V0z"/>
    </symbol>
    <symbol id="icon-broker4" viewBox="0 0 78 32">
      <path d="M0 0h77.867v32H0V0z"/>
    </symbol>
    <symbol id="icon-broker5" viewBox="0 0 63 32">
      <path d="M0 0h62.933v32H0V0z"/>
    </symbol>
    <symbol id="icon-innovation" viewBox="0 0 48 32">
      <path d="M0 0h48.136v32H0V0z"/>
    </symbol>
    <symbol id="icon-linkedin-icon" viewBox="0 0 32 32">
      <path fill="var(--color2, #fff)" d="M29.638 0H2.362A2.36 2.36 0 0 0 0 2.362v27.276A2.362 2.362 0 0 0 2.362 32h27.276A2.362 2.362 0 0 0 32 29.638V2.362A2.36 2.36 0 0 0 29.638 0zm-20.1 27.26H4.727V11.978h4.811V27.26zM7.129 9.86a2.768 2.768 0 0 1-2.541-1.716 2.763 2.763 0 1 1 5.319-1.043A2.723 2.723 0 0 1 7.129 9.86zm20.142 17.413h-4.809v-8.349c0-2.462-1.047-3.222-2.398-3.222-1.427 0-2.827 1.075-2.827 3.284v8.287h-4.811V11.989h4.627v2.118h.062c.465-.94 2.091-2.547 4.573-2.547 2.684 0 5.585 1.593 5.585 6.26l-.002 9.453z"/>
    </symbol>
    <symbol id="icon-ok" viewBox="0 0 33 32">
      <path d="M0 0h32.711v32H0V0z"/>
    </symbol>
    <symbol id="icon-people" viewBox="0 0 64 32">
      <path d="M4.295 0h60.134v32H4.295V0z"/>
    </symbol>
    <symbol id="icon-podcast" viewBox="0 0 48 32">
      <path d="M0 0h47.932v32H0V0z"/>
    </symbol>
    <symbol id="icon-smartphone" viewBox="0 0 19 32">
      <path d="M0 0h18.944v32H0V0z"/>
    </symbol>
    <symbol id="icon-strategy" viewBox="0 0 48 32">
      <path d="M0 0h48.136v32H0V0z"/>
    </symbol>
    <symbol id="icon-twitter-icon" viewBox="0 0 38 32">
      <path fill="var(--color3, #fafafa)" d="M11.893 31.364c14.271 0 22.077-11.823 22.077-22.077 0-.336 0-.67-.023-1.003a15.775 15.775 0 0 0 3.871-4.016 15.476 15.476 0 0 1-4.456 1.221 7.785 7.785 0 0 0 3.411-4.292 15.525 15.525 0 0 1-4.927 1.883 7.767 7.767 0 0 0-13.223 7.076A22.02 22.02 0 0 1 2.632 2.049a7.766 7.766 0 0 0 2.402 10.357 7.688 7.688 0 0 1-3.522-.971v.098a7.765 7.765 0 0 0 6.225 7.606 7.737 7.737 0 0 1-3.503.133 7.766 7.766 0 0 0 7.249 5.388A15.564 15.564 0 0 1 0 27.876a21.963 21.963 0 0 0 11.893 3.479z"/>
    </symbol>
    <symbol id="icon-umbrella" viewBox="0 0 29 32">
      <path d="M0 0h29.156v32H0V0z"/>
    </symbol>
    <symbol id="icon-youtube-icon" viewBox="0 0 32 32">
      <path fill="var(--color3, #fafafa)" d="M31.362 8.247A4.02 4.02 0 0 0 28.533 5.4c-2.502-.673-12.502-.673-12.502-.673s-10 0-12.502.673A4.02 4.02 0 0 0 .7 8.247C.031 10.76.031 16 .031 16s0 5.24.669 7.753A4.02 4.02 0 0 0 3.529 26.6c2.502.673 12.502.673 12.502.673s10 0 12.502-.673a4.02 4.02 0 0 0 2.829-2.847c.669-2.513.669-7.753.669-7.753s0-5.24-.669-7.753z"/>
      <path fill="var(--color1, #214e41)" d="M12.76 20.758v-9.516L21.124 16l-8.364 4.758z"/>
    </symbol>
  </defs>
</svg>
