<svg xmlns="http://www.w3.org/2000/svg" aria-hidden="true" overflow="hidden" style="position:absolute;width:0;height:0">
  <defs>

    <symbol id="icon-brella" viewBox="0 0 86 32">
      <path fill="var(--color1, #214e41)" d="M55.113 1.229h-2.708v21.959h2.708V1.229zM62.016 1.229h-2.708v21.959h2.708V1.229zM80.239 8.377l-1.354 2.949c-1.243-2.122-3.418-3.329-5.971-3.329-4.572 0-7.68 3.485-7.68 7.774s3.107 7.774 7.68 7.774c2.419 0 4.506-1.095 5.771-3.016v2.658h2.863V8.376h-1.31zm-6.903 13.582c-3.218 0-4.994-2.636-4.994-6.188 0-3.641 1.776-6.188 4.994-6.188 2.952 0 5.149 2.591 5.149 6.188s-2.197 6.188-5.149 6.188zM27.99 9.561a7.35 7.35 0 0 0-1.909 2.993l-1.398-4.2h-1.31v14.811h2.863v-5.629c0-2.033.222-3.731 1.043-4.937.71-1.028 1.931-1.653 3.463-1.653.488 0 .977.045 1.465.134V8.243a5.614 5.614 0 0 0-.866-.067 4.98 4.98 0 0 0-3.352 1.385zM41.019 7.997c-4.595 0-7.857 3.351-7.857 7.774s3.196 7.774 7.835 7.774a8.492 8.492 0 0 0 4.883-1.474 6.908 6.908 0 0 0 2.464-3.686h-2.952c-.444 1.877-1.598 3.597-4.195 3.597-3.662 0-4.839-2.882-4.905-5.965v-.045h12.385v-.357c.022-4.423-3.107-7.618-7.658-7.618zm.022 1.564c3.241 0 4.262 2.658 4.35 4.803h-9.012c.266-2.614 1.598-4.803 4.661-4.803zM13.895 12.398c2.908-.603 5.149-2.167 5.149-4.892 0-3.351-2.508-4.959-6.37-4.959H4.129v20.664h9.455c3.485 0 6.237-1.787 6.237-5.562 0-3.128-2.619-5.026-5.926-5.25zm-2.197-8.355c2.774 0 4.217 1.407 4.217 3.619s-1.576 3.932-4.461 3.932H7.326V4.043h4.373zm.377 17.626h-4.75v-8.355h4.262c3.041 0 4.927 1.497 4.927 4.2 0 2.368-1.576 4.155-4.439 4.155z"/>
    </symbol>
    <symbol id="icon-brella-footer" viewBox="0 0 112 32">
      <path fill-rule="evenodd" clip-rule="evenodd" d="M60.6667 0H64.2963V27.4815H60.6667V0ZM40.4444 18.6667C40.4444 21.0864 41.7193 26.4756 46.6667 25.9259C51.3333 25.4074 51.8518 21.2593 51.8518 21.2593H55.4815C55.4815 22.8148 53.1786 28 46.6667 28C39.4074 28 36.2963 22.2963 36.2963 18.6667C36.2963 15.037 37.3333 8.2963 46.6667 8.2963C54.1333 8.2963 56 14.5185 56 18.6667H40.4444ZM51.8518 16.5926H40.4444C40.7901 14.5185 41.4815 10.3704 46.6667 10.3704C51.1223 10.3704 51.8518 15.5556 51.8518 16.5926ZM72.5926 0H69.4815H68.963V27.4815H72.5926V0ZM25.9259 8.8148L27.4815 14C27.8272 12.2716 31.1111 7.77778 35.2593 8.8148V12.4444C32.8395 12.0988 28 13.1704 28 18.1481V27.4815H24.3704V8.8148H25.9259ZM93.8519 12.4444L95.4074 8.8148H97.4815V27.5912L93.3333 27.4815V24.3704C92.642 25.5802 90.4296 28 87.1111 28C82.963 28 76.7407 25.9259 76.7407 18.1481C76.7407 10.3704 82.963 7.77778 87.1111 8.29628C90.404 8.70789 92.9877 11.0617 93.8519 12.4444ZM93.3333 18.1481C93.3333 13.1704 89.7037 10.3704 87.1111 10.3704C84 10.3704 80.8889 12.3407 80.8889 18.1481C80.8889 23.9555 84 25.9259 87.1111 25.9259C89.1852 25.9259 93.3333 23.1259 93.3333 18.1481ZM0 27.4815V1.55556H12.4444C15.5556 1.55556 18.6667 3.11111 18.6667 7.77778C18.6667 12.4444 14.5185 13.4815 12.4444 14C14.8642 14 19.7037 15.3481 19.7037 20.7407C19.7037 26.1333 15.2099 27.4815 12.963 27.4815H0ZM4.14815 3.62963V12.963H10.8889C12.4444 12.963 14.5185 10.3704 14.5185 7.77778C14.5185 5.13384 11.9259 3.62963 10.3704 3.62963H4.14815ZM4.14815 15.037V25.4074H11.4074C13.1358 25.0617 15.5556 23.6444 15.5556 20.7407C15.5556 17.1111 12.963 15.037 10.3704 15.037H4.14815Z" fill="white"/>
    </symbol>
      <symbol id="icon-linkedin" viewBox="0 0 32 32">
      <path fill="var(--color2, #fff)" d="M29.638 0H2.362A2.36 2.36 0 0 0 0 2.362v27.276A2.362 2.362 0 0 0 2.362 32h27.276A2.362 2.362 0 0 0 32 29.638V2.362A2.36 2.36 0 0 0 29.638 0zm-20.1 27.26H4.727V11.978h4.811V27.26zM7.129 9.86a2.768 2.768 0 0 1-2.541-1.716 2.763 2.763 0 1 1 5.319-1.043A2.723 2.723 0 0 1 7.129 9.86zm20.142 17.413h-4.809v-8.349c0-2.462-1.047-3.222-2.398-3.222-1.427 0-2.827 1.075-2.827 3.284v8.287h-4.811V11.989h4.627v2.118h.062c.465-.94 2.091-2.547 4.573-2.547 2.684 0 5.585 1.593 5.585 6.26l-.002 9.453z"/>
    </symbol>
    <symbol id="icon-twitter" viewBox="0 0 38 32">
      <path fill="var(--color3, #fafafa)" d="M11.893 31.364c14.271 0 22.077-11.823 22.077-22.077 0-.336 0-.67-.023-1.003a15.775 15.775 0 0 0 3.871-4.016 15.476 15.476 0 0 1-4.456 1.221 7.785 7.785 0 0 0 3.411-4.292 15.525 15.525 0 0 1-4.927 1.883 7.767 7.767 0 0 0-13.223 7.076A22.02 22.02 0 0 1 2.632 2.049a7.766 7.766 0 0 0 2.402 10.357 7.688 7.688 0 0 1-3.522-.971v.098a7.765 7.765 0 0 0 6.225 7.606 7.737 7.737 0 0 1-3.503.133 7.766 7.766 0 0 0 7.249 5.388A15.564 15.564 0 0 1 0 27.876a21.963 21.963 0 0 0 11.893 3.479z"/>
    </symbol>
    <symbol id="icon-youtube" viewBox="0 0 32 32">
      <path fill="var(--color3, #fafafa)" d="M31.362 8.247A4.02 4.02 0 0 0 28.533 5.4c-2.502-.673-12.502-.673-12.502-.673s-10 0-12.502.673A4.02 4.02 0 0 0 .7 8.247C.031 10.76.031 16 .031 16s0 5.24.669 7.753A4.02 4.02 0 0 0 3.529 26.6c2.502.673 12.502.673 12.502.673s10 0 12.502-.673a4.02 4.02 0 0 0 2.829-2.847c.669-2.513.669-7.753.669-7.753s0-5.24-.669-7.753z"/>
      <path fill="var(--color1, #214e41)" d="M12.76 20.758v-9.516L21.124 16l-8.364 4.758z"/>
    </symbol>
  </defs>
</svg>
